# xmcd CD database file
#
# Track frame offsets:
#	150
#	9027
#	29897
#	46887
#	63190
#	80232
#	116877
#	132542
#	149945
#	165615
#	181102
#	196147
#	225880
#
# Disc length: 4440 seconds
#
# Revision: 0
# Processed by: cddbd v1.5PL3 Copyright (c) Steve Scherf et al.
# Submitted via: CDex 1.40Release
#
DISCID=b211560d
DTITLE=サントラ - 「偶然にも最悪な少年」オリジナル・サウンドトラック
DYEAR=1900
DGENRE=Techno
TTITLE0=G・I・C・O・D・E
TTITLE1=夜の果て
TTITLE2=Shall We Go？
TTITLE3=Don’t you honey me？
TTITLE4=三十七度二分 ／フーバーオーバー
TTITLE5=Black Jenny
TTITLE6=DEVIL
TTITLE7=ON MY MIND
TTITLE8=BREAK DOWN
TTITLE9=Flat Broke
TTITLE10=pillow song
TTITLE11=ONE
TTITLE12=ONE
EXTD=
EXTT0=
EXTT1=
EXTT2=
EXTT3=
EXTT4=
EXTT5=
EXTT6=
EXTT7=
EXTT8=
EXTT9=
EXTT10=
EXTT11=
EXTT12=
PLAYORDER=
